<svg width="23" height="28" viewBox="0 0 23 28" fill="none" xmlns="http://www.w3.org/2000/svg">
<rect width="4.70065" height="4.70065" transform="matrix(-1 0 0 1 23.0001 4.53284)" fill="#3377FE"/>
<rect width="4.53277" height="4.53277" transform="matrix(-1 0 0 1 18.3006 0)" fill="#3377FE"/>
<rect width="4.70065" height="4.53277" transform="matrix(-1 0 0 1 9.23383 0)" fill="#3377FE"/>
<rect width="4.53277" height="4.53277" transform="matrix(-1 0 0 1 4.53292 0)" fill="#3377FE"/>
<rect width="4.53277" height="4.70065" transform="matrix(-1 0 0 1 4.53292 4.53296)" fill="#3377FE"/>
<rect width="4.53277" height="4.70065" transform="matrix(-1 0 0 1 4.53292 18.2982)" fill="#3377FE"/>
<rect width="4.53277" height="4.53277" transform="matrix(-1 0 0 1 4.53292 22.9993)" fill="#3377FE"/>
<rect width="4.53277" height="4.53277" transform="matrix(-1 0 0 1 18.3006 9.23352)" fill="#3377FE"/>
<rect width="4.70065" height="4.53277" transform="matrix(-1 0 0 1 23.0001 9.23352)" fill="#3377FE"/>
<rect width="4.70065" height="4.53277" transform="matrix(-1 0 0 1 9.23383 13.7654)" fill="#3377FE"/>
<rect width="4.53277" height="4.53277" transform="matrix(-1 0 0 1 13.7653 13.7654)" fill="#3377FE"/>
</svg>
